<mxfile host="app.diagrams.net" modified="2022-11-01T07:29:01.792Z" agent="5.0 (X11; Linux x86_64) AppleWebKit/537.36 (KHTML, like Gecko) Chrome/105.0.0.0 Safari/537.36 OPR/91.0.4516.77" etag="XfiwjrXA6PFPkqQbzWFI" version="20.5.1" type="github">
  <diagram name="Page-1" id="a7904f86-f2b4-8e86-fa97-74104820619b">
    <mxGraphModel dx="563" dy="363" grid="1" gridSize="10" guides="1" tooltips="1" connect="1" arrows="1" fold="1" page="1" pageScale="1" pageWidth="1100" pageHeight="850" background="none" math="0" shadow="0">
      <root>
        <mxCell id="0" />
        <mxCell id="1" parent="0" />
        <mxCell id="24794b860abc3c2d-1" value="&lt;p style=&quot;margin: 0px ; margin-top: 4px ; text-align: center ; text-decoration: underline&quot;&gt;&lt;/p&gt;&lt;p style=&quot;margin: 0px ; margin-left: 8px&quot;&gt;&lt;br&gt;&lt;/p&gt;" style="verticalAlign=top;align=left;overflow=fill;fontSize=12;fontFamily=Helvetica;html=1;rounded=0;shadow=0;comic=0;labelBackgroundColor=none;strokeWidth=1;textOpacity=0;" parent="1" vertex="1">
          <mxGeometry x="40" y="210" width="130" height="175" as="geometry" />
        </mxCell>
        <mxCell id="24794b860abc3c2d-16" value="&lt;p style=&quot;margin: 0px ; margin-top: 4px ; text-align: center ; text-decoration: underline&quot;&gt;&lt;b&gt;Object:Type&lt;/b&gt;&lt;/p&gt;&lt;hr&gt;&lt;p style=&quot;margin: 0px ; margin-left: 8px&quot;&gt;field1 = value1&lt;br&gt;field2 = value2&lt;br&gt;field3 = value3&lt;/p&gt;&lt;p style=&quot;margin: 0px ; margin-left: 8px&quot;&gt;field4 = value4&lt;br&gt;&lt;/p&gt;&lt;p style=&quot;margin: 0px ; margin-left: 8px&quot;&gt;field5 = value5&lt;br&gt;&lt;/p&gt;&lt;p style=&quot;margin: 0px ; margin-left: 8px&quot;&gt;field6 = value6&lt;br&gt;&lt;/p&gt;&lt;p style=&quot;margin: 0px ; margin-left: 8px&quot;&gt;field7 = value7&lt;br&gt;&lt;/p&gt;&lt;p style=&quot;margin: 0px ; margin-left: 8px&quot;&gt;field8 = value8&lt;/p&gt;" style="verticalAlign=top;align=left;overflow=fill;fontSize=12;fontFamily=Helvetica;html=1;rounded=0;shadow=0;comic=0;labelBackgroundColor=none;strokeWidth=1" parent="1" vertex="1">
          <mxGeometry x="40" y="445" width="140" height="150" as="geometry" />
        </mxCell>
        <mxCell id="24794b860abc3c2d-40" style="edgeStyle=orthogonalEdgeStyle;rounded=0;html=1;exitX=0;exitY=0.25;entryX=1;entryY=0.25;labelBackgroundColor=none;endArrow=none;endFill=0;endSize=8;fontFamily=Verdana;fontSize=12;align=left;" parent="1" source="24794b860abc3c2d-17" target="24794b860abc3c2d-1" edge="1">
          <mxGeometry relative="1" as="geometry" />
        </mxCell>
        <mxCell id="24794b860abc3c2d-17" value="&lt;p style=&quot;margin: 0px ; margin-top: 4px ; text-align: center ; text-decoration: underline&quot;&gt;&lt;br&gt;&lt;/p&gt;" style="verticalAlign=top;align=left;overflow=fill;fontSize=12;fontFamily=Helvetica;html=1;rounded=0;shadow=0;comic=0;labelBackgroundColor=none;strokeWidth=1" parent="1" vertex="1">
          <mxGeometry x="220" y="205" width="140" height="180" as="geometry" />
        </mxCell>
        <mxCell id="24794b860abc3c2d-37" style="edgeStyle=orthogonalEdgeStyle;rounded=0;html=1;exitX=0;exitY=0.75;entryX=1;entryY=0.75;labelBackgroundColor=none;endArrow=none;endFill=0;endSize=8;fontFamily=Verdana;fontSize=12;align=left;" parent="1" source="24794b860abc3c2d-18" target="24794b860abc3c2d-16" edge="1">
          <mxGeometry relative="1" as="geometry" />
        </mxCell>
        <mxCell id="24794b860abc3c2d-38" style="edgeStyle=orthogonalEdgeStyle;rounded=0;html=1;exitX=0;exitY=0.5;entryX=1;entryY=0.5;labelBackgroundColor=none;endArrow=none;endFill=0;endSize=8;fontFamily=Verdana;fontSize=12;align=left;" parent="1" source="24794b860abc3c2d-18" target="24794b860abc3c2d-16" edge="1">
          <mxGeometry relative="1" as="geometry" />
        </mxCell>
        <mxCell id="24794b860abc3c2d-18" value="&lt;p style=&quot;margin: 0px ; margin-top: 4px ; text-align: center ; text-decoration: underline&quot;&gt;&lt;b&gt;Object:Type&lt;/b&gt;&lt;/p&gt;&lt;hr&gt;&lt;p style=&quot;margin: 0px ; margin-left: 8px&quot;&gt;field1 = value1&lt;br&gt;field2 = value2&lt;br&gt;field3 = value3&lt;/p&gt;&lt;p style=&quot;margin: 0px ; margin-left: 8px&quot;&gt;field4 = value4&lt;br&gt;&lt;/p&gt;&lt;p style=&quot;margin: 0px ; margin-left: 8px&quot;&gt;field5 = value5&lt;br&gt;&lt;/p&gt;&lt;p style=&quot;margin: 0px ; margin-left: 8px&quot;&gt;field6 = value6&lt;br&gt;&lt;/p&gt;&lt;p style=&quot;margin: 0px ; margin-left: 8px&quot;&gt;field7 = value7&lt;br&gt;&lt;/p&gt;&lt;p style=&quot;margin: 0px ; margin-left: 8px&quot;&gt;field8 = value8&lt;br&gt;&lt;/p&gt;&lt;p style=&quot;margin: 0px ; margin-left: 8px&quot;&gt;field9 = value9&lt;br&gt;&lt;/p&gt;&lt;p style=&quot;margin: 0px ; margin-left: 8px&quot;&gt;field10 = value10&lt;br&gt;&lt;/p&gt;&lt;p style=&quot;margin: 0px ; margin-left: 8px&quot;&gt;field11 = value11&lt;br&gt;&lt;/p&gt;&lt;p style=&quot;margin: 0px ; margin-left: 8px&quot;&gt;field12 = value12&lt;/p&gt;" style="verticalAlign=top;align=left;overflow=fill;fontSize=12;fontFamily=Helvetica;html=1;rounded=0;shadow=0;comic=0;labelBackgroundColor=none;strokeWidth=1" parent="1" vertex="1">
          <mxGeometry x="220" y="445" width="140" height="200" as="geometry" />
        </mxCell>
        <mxCell id="24794b860abc3c2d-19" value="&lt;p style=&quot;margin: 0px ; margin-top: 4px ; text-align: center ; text-decoration: underline&quot;&gt;&lt;b&gt;Object:Type&lt;/b&gt;&lt;/p&gt;&lt;hr&gt;&lt;p style=&quot;margin: 0px ; margin-left: 8px&quot;&gt;field1 = value1&lt;br&gt;field2 = value2&lt;br&gt;field3 = value3&lt;/p&gt;&lt;p style=&quot;margin: 0px ; margin-left: 8px&quot;&gt;field4 = value4&lt;br&gt;&lt;/p&gt;&lt;p style=&quot;margin: 0px ; margin-left: 8px&quot;&gt;field5 = value5&lt;br&gt;&lt;/p&gt;&lt;p style=&quot;margin: 0px ; margin-left: 8px&quot;&gt;field6 = value6&lt;br&gt;&lt;/p&gt;&lt;p style=&quot;margin: 0px ; margin-left: 8px&quot;&gt;field7 = value7&lt;br&gt;&lt;/p&gt;&lt;p style=&quot;margin: 0px ; margin-left: 8px&quot;&gt;field8 = value8&lt;/p&gt;" style="verticalAlign=top;align=left;overflow=fill;fontSize=12;fontFamily=Helvetica;html=1;rounded=0;shadow=0;comic=0;labelBackgroundColor=none;strokeWidth=1" parent="1" vertex="1">
          <mxGeometry x="410" y="125" width="140" height="150" as="geometry" />
        </mxCell>
        <mxCell id="24794b860abc3c2d-32" style="edgeStyle=orthogonalEdgeStyle;rounded=0;html=1;labelBackgroundColor=none;endArrow=none;endFill=0;endSize=8;fontFamily=Verdana;fontSize=12;align=left;exitX=1;exitY=0.5;" parent="1" source="24794b860abc3c2d-20" target="24794b860abc3c2d-24" edge="1">
          <mxGeometry relative="1" as="geometry">
            <Array as="points">
              <mxPoint x="574" y="350" />
              <mxPoint x="574" y="476" />
            </Array>
          </mxGeometry>
        </mxCell>
        <mxCell id="24794b860abc3c2d-20" value="&lt;p style=&quot;margin: 0px ; margin-top: 4px ; text-align: center ; text-decoration: underline&quot;&gt;&lt;b&gt;Object:Type&lt;/b&gt;&lt;/p&gt;&lt;hr&gt;&lt;p style=&quot;margin: 0px ; margin-left: 8px&quot;&gt;field1 = value1&lt;br&gt;field2 = value2&lt;br&gt;field3 = value3&lt;/p&gt;&lt;p style=&quot;margin: 0px ; margin-left: 8px&quot;&gt;field4 = value4&lt;/p&gt;" style="verticalAlign=top;align=left;overflow=fill;fontSize=12;fontFamily=Helvetica;html=1;rounded=0;shadow=0;comic=0;labelBackgroundColor=none;strokeWidth=1" parent="1" vertex="1">
          <mxGeometry x="410" y="305" width="140" height="90" as="geometry" />
        </mxCell>
        <mxCell id="24794b860abc3c2d-33" style="edgeStyle=orthogonalEdgeStyle;rounded=0;html=1;exitX=1;exitY=0.5;entryX=0;entryY=0.75;labelBackgroundColor=none;endArrow=none;endFill=0;endSize=8;fontFamily=Verdana;fontSize=12;align=left;" parent="1" source="24794b860abc3c2d-21" target="24794b860abc3c2d-24" edge="1">
          <mxGeometry relative="1" as="geometry">
            <Array as="points">
              <mxPoint x="575" y="555" />
              <mxPoint x="575" y="525" />
            </Array>
          </mxGeometry>
        </mxCell>
        <mxCell id="24794b860abc3c2d-35" style="edgeStyle=orthogonalEdgeStyle;rounded=0;html=1;exitX=1;exitY=0.25;entryX=1;entryY=0.75;labelBackgroundColor=none;endArrow=none;endFill=0;endSize=8;fontFamily=Verdana;fontSize=12;align=left;" parent="1" source="24794b860abc3c2d-21" target="24794b860abc3c2d-20" edge="1">
          <mxGeometry relative="1" as="geometry" />
        </mxCell>
        <mxCell id="24794b860abc3c2d-21" value="&lt;p style=&quot;margin: 0px ; margin-top: 4px ; text-align: center ; text-decoration: underline&quot;&gt;&lt;b&gt;Object:Type&lt;/b&gt;&lt;/p&gt;&lt;hr&gt;&lt;p style=&quot;margin: 0px ; margin-left: 8px&quot;&gt;field1 = value1&lt;br&gt;field2 = value2&lt;br&gt;field3 = value3&lt;/p&gt;&lt;p style=&quot;margin: 0px ; margin-left: 8px&quot;&gt;field4 = value4&lt;br&gt;&lt;/p&gt;&lt;p style=&quot;margin: 0px ; margin-left: 8px&quot;&gt;field5 = value5&lt;br&gt;&lt;/p&gt;&lt;p style=&quot;margin: 0px ; margin-left: 8px&quot;&gt;field6 = value6&lt;br&gt;&lt;/p&gt;&lt;p style=&quot;margin: 0px ; margin-left: 8px&quot;&gt;field7 = value7&lt;br&gt;&lt;/p&gt;&lt;p style=&quot;margin: 0px ; margin-left: 8px&quot;&gt;field8 = value8&lt;br&gt;&lt;/p&gt;&lt;p style=&quot;margin: 0px ; margin-left: 8px&quot;&gt;field9 = value9&lt;br&gt;&lt;/p&gt;&lt;p style=&quot;margin: 0px ; margin-left: 8px&quot;&gt;field10 = value10&lt;/p&gt;" style="verticalAlign=top;align=left;overflow=fill;fontSize=12;fontFamily=Helvetica;html=1;rounded=0;shadow=0;comic=0;labelBackgroundColor=none;strokeWidth=1" parent="1" vertex="1">
          <mxGeometry x="410" y="465" width="140" height="180" as="geometry" />
        </mxCell>
        <mxCell id="24794b860abc3c2d-47" style="edgeStyle=orthogonalEdgeStyle;rounded=0;html=1;exitX=0;exitY=0.25;entryX=1;entryY=0.75;labelBackgroundColor=none;endArrow=none;endFill=0;endSize=8;fontFamily=Verdana;fontSize=12;align=left;" parent="1" source="24794b860abc3c2d-22" target="24794b860abc3c2d-18" edge="1">
          <mxGeometry relative="1" as="geometry" />
        </mxCell>
        <mxCell id="24794b860abc3c2d-50" style="edgeStyle=orthogonalEdgeStyle;rounded=0;html=1;exitX=0;exitY=0.75;entryX=1.006;entryY=0.853;entryPerimeter=0;labelBackgroundColor=none;endArrow=none;endFill=0;endSize=8;fontFamily=Verdana;fontSize=12;align=left;" parent="1" source="24794b860abc3c2d-22" target="24794b860abc3c2d-18" edge="1">
          <mxGeometry relative="1" as="geometry">
            <Array as="points">
              <mxPoint x="370" y="813" />
              <mxPoint x="370" y="615" />
            </Array>
          </mxGeometry>
        </mxCell>
        <mxCell id="24794b860abc3c2d-51" style="edgeStyle=orthogonalEdgeStyle;rounded=0;html=1;exitX=0;exitY=0.5;entryX=1;entryY=0.5;labelBackgroundColor=none;endArrow=none;endFill=0;endSize=8;fontFamily=Verdana;fontSize=12;align=left;" parent="1" source="24794b860abc3c2d-22" target="24794b860abc3c2d-18" edge="1">
          <mxGeometry relative="1" as="geometry">
            <Array as="points">
              <mxPoint x="400" y="775" />
              <mxPoint x="400" y="545" />
            </Array>
          </mxGeometry>
        </mxCell>
        <mxCell id="24794b860abc3c2d-22" value="&lt;p style=&quot;margin: 0px ; margin-top: 4px ; text-align: center ; text-decoration: underline&quot;&gt;&lt;b&gt;Object:Type&lt;/b&gt;&lt;/p&gt;&lt;hr&gt;&lt;p style=&quot;margin: 0px ; margin-left: 8px&quot;&gt;field1 = value1&lt;br&gt;field2 = value2&lt;br&gt;field3 = value3&lt;/p&gt;&lt;p style=&quot;margin: 0px ; margin-left: 8px&quot;&gt;field4 = value4&lt;br&gt;&lt;/p&gt;&lt;p style=&quot;margin: 0px ; margin-left: 8px&quot;&gt;field5 = value5&lt;br&gt;&lt;/p&gt;&lt;p style=&quot;margin: 0px ; margin-left: 8px&quot;&gt;field6 = value6&lt;br&gt;&lt;/p&gt;&lt;p style=&quot;margin: 0px ; margin-left: 8px&quot;&gt;field7 = value7&lt;br&gt;&lt;/p&gt;&lt;p style=&quot;margin: 0px ; margin-left: 8px&quot;&gt;field8 = value8&lt;/p&gt;" style="verticalAlign=top;align=left;overflow=fill;fontSize=12;fontFamily=Helvetica;html=1;rounded=0;shadow=0;comic=0;labelBackgroundColor=none;strokeWidth=1" parent="1" vertex="1">
          <mxGeometry x="410" y="690" width="140" height="150" as="geometry" />
        </mxCell>
        <mxCell id="24794b860abc3c2d-31" style="edgeStyle=orthogonalEdgeStyle;rounded=0;html=1;labelBackgroundColor=none;endArrow=none;endFill=0;endSize=8;fontFamily=Verdana;fontSize=12;align=left;entryX=1;entryY=0.25;" parent="1" source="24794b860abc3c2d-23" target="24794b860abc3c2d-20" edge="1">
          <mxGeometry relative="1" as="geometry">
            <Array as="points">
              <mxPoint x="574" y="236" />
              <mxPoint x="574" y="327" />
            </Array>
          </mxGeometry>
        </mxCell>
        <mxCell id="24794b860abc3c2d-23" value="&lt;p style=&quot;margin: 0px ; margin-top: 4px ; text-align: center ; text-decoration: underline&quot;&gt;&lt;b&gt;Object:Type&lt;/b&gt;&lt;/p&gt;&lt;hr&gt;&lt;p style=&quot;margin: 0px ; margin-left: 8px&quot;&gt;field1 = value1&lt;br&gt;field2 = value2&lt;br&gt;field3 = value3&lt;/p&gt;&lt;p style=&quot;margin: 0px ; margin-left: 8px&quot;&gt;field4 = value4&lt;br&gt;&lt;/p&gt;&lt;p style=&quot;margin: 0px ; margin-left: 8px&quot;&gt;field5 = value5&lt;br&gt;&lt;/p&gt;&lt;p style=&quot;margin: 0px ; margin-left: 8px&quot;&gt;field6 = value6&lt;br&gt;&lt;/p&gt;&lt;p style=&quot;margin: 0px ; margin-left: 8px&quot;&gt;field7 = value7&lt;br&gt;&lt;/p&gt;&lt;p style=&quot;margin: 0px ; margin-left: 8px&quot;&gt;field8 = value8&lt;br&gt;&lt;/p&gt;&lt;p style=&quot;margin: 0px ; margin-left: 8px&quot;&gt;field9 = value9&lt;br&gt;&lt;/p&gt;&lt;p style=&quot;margin: 0px ; margin-left: 8px&quot;&gt;field10 = value10&lt;br&gt;&lt;/p&gt;&lt;p style=&quot;margin: 0px ; margin-left: 8px&quot;&gt;field11 = value11&lt;br&gt;&lt;/p&gt;&lt;p style=&quot;margin: 0px ; margin-left: 8px&quot;&gt;field12 = value12&lt;/p&gt;" style="verticalAlign=top;align=left;overflow=fill;fontSize=12;fontFamily=Helvetica;html=1;rounded=0;shadow=0;comic=0;labelBackgroundColor=none;strokeWidth=1" parent="1" vertex="1">
          <mxGeometry x="600" y="135" width="140" height="200" as="geometry" />
        </mxCell>
        <mxCell id="24794b860abc3c2d-44" style="edgeStyle=orthogonalEdgeStyle;rounded=0;html=1;exitX=1;exitY=0.25;entryX=0;entryY=0.75;labelBackgroundColor=none;endArrow=none;endFill=0;endSize=8;fontFamily=Verdana;fontSize=12;align=left;" parent="1" source="24794b860abc3c2d-24" target="24794b860abc3c2d-26" edge="1">
          <mxGeometry relative="1" as="geometry" />
        </mxCell>
        <mxCell id="24794b860abc3c2d-45" style="edgeStyle=orthogonalEdgeStyle;rounded=0;html=1;exitX=1;exitY=0.5;entryX=0;entryY=0.75;labelBackgroundColor=none;endArrow=none;endFill=0;endSize=8;fontFamily=Verdana;fontSize=12;align=left;" parent="1" source="24794b860abc3c2d-24" target="24794b860abc3c2d-27" edge="1">
          <mxGeometry relative="1" as="geometry" />
        </mxCell>
        <mxCell id="24794b860abc3c2d-46" style="edgeStyle=orthogonalEdgeStyle;rounded=0;html=1;exitX=1;exitY=0.75;entryX=0;entryY=0.5;labelBackgroundColor=none;endArrow=none;endFill=0;endSize=8;fontFamily=Verdana;fontSize=12;align=left;" parent="1" source="24794b860abc3c2d-24" target="24794b860abc3c2d-28" edge="1">
          <mxGeometry relative="1" as="geometry" />
        </mxCell>
        <mxCell id="24794b860abc3c2d-24" value="&lt;p style=&quot;margin: 0px ; margin-top: 4px ; text-align: center ; text-decoration: underline&quot;&gt;&lt;b&gt;Object:Type&lt;/b&gt;&lt;/p&gt;&lt;hr&gt;&lt;p style=&quot;margin: 0px ; margin-left: 8px&quot;&gt;field1 = value1&lt;br&gt;field2 = value2&lt;br&gt;field3 = value3&lt;/p&gt;&lt;p style=&quot;margin: 0px ; margin-left: 8px&quot;&gt;field4 = value4&lt;br&gt;&lt;/p&gt;&lt;p style=&quot;margin: 0px ; margin-left: 8px&quot;&gt;field5 = value5&lt;br&gt;&lt;/p&gt;&lt;p style=&quot;margin: 0px ; margin-left: 8px&quot;&gt;field6 = value6&lt;br&gt;&lt;/p&gt;&lt;p style=&quot;margin: 0px ; margin-left: 8px&quot;&gt;field7 = value7&lt;br&gt;&lt;/p&gt;&lt;p style=&quot;margin: 0px ; margin-left: 8px&quot;&gt;field8 = value8&lt;br&gt;&lt;/p&gt;&lt;p style=&quot;margin: 0px ; margin-left: 8px&quot;&gt;field9 = value9&lt;br&gt;&lt;/p&gt;&lt;p style=&quot;margin: 0px ; margin-left: 8px&quot;&gt;field10 = value10&lt;/p&gt;" style="verticalAlign=top;align=left;overflow=fill;fontSize=12;fontFamily=Helvetica;html=1;rounded=0;shadow=0;comic=0;labelBackgroundColor=none;strokeWidth=1" parent="1" vertex="1">
          <mxGeometry x="600" y="375" width="140" height="200" as="geometry" />
        </mxCell>
        <mxCell id="24794b860abc3c2d-49" style="edgeStyle=orthogonalEdgeStyle;rounded=0;html=1;exitX=0;exitY=0.25;entryX=1;entryY=0.75;labelBackgroundColor=none;endArrow=none;endFill=0;endSize=8;fontFamily=Verdana;fontSize=12;align=left;" parent="1" source="24794b860abc3c2d-25" target="24794b860abc3c2d-21" edge="1">
          <mxGeometry relative="1" as="geometry" />
        </mxCell>
        <mxCell id="24794b860abc3c2d-25" value="&lt;p style=&quot;margin: 0px ; margin-top: 4px ; text-align: center ; text-decoration: underline&quot;&gt;&lt;b&gt;Object:Type&lt;/b&gt;&lt;/p&gt;&lt;hr&gt;&lt;p style=&quot;margin: 0px ; margin-left: 8px&quot;&gt;field1 = value1&lt;br&gt;field2 = value2&lt;br&gt;field3 = value3&lt;/p&gt;&lt;p style=&quot;margin: 0px ; margin-left: 8px&quot;&gt;field4 = value4&lt;br&gt;&lt;/p&gt;&lt;p style=&quot;margin: 0px ; margin-left: 8px&quot;&gt;field5 = value5&lt;br&gt;&lt;/p&gt;&lt;p style=&quot;margin: 0px ; margin-left: 8px&quot;&gt;field6 = value6&lt;br&gt;&lt;/p&gt;&lt;p style=&quot;margin: 0px ; margin-left: 8px&quot;&gt;field7 = value7&lt;br&gt;&lt;/p&gt;&lt;p style=&quot;margin: 0px ; margin-left: 8px&quot;&gt;field8 = value8&lt;/p&gt;" style="verticalAlign=top;align=left;overflow=fill;fontSize=12;fontFamily=Helvetica;html=1;rounded=0;shadow=0;comic=0;labelBackgroundColor=none;strokeWidth=1" parent="1" vertex="1">
          <mxGeometry x="600" y="665" width="140" height="150" as="geometry" />
        </mxCell>
        <mxCell id="24794b860abc3c2d-43" style="edgeStyle=orthogonalEdgeStyle;rounded=0;html=1;exitX=1;exitY=0.75;entryX=0;entryY=0.25;labelBackgroundColor=none;endArrow=none;endFill=0;endSize=8;fontFamily=Verdana;fontSize=12;align=left;" parent="1" source="24794b860abc3c2d-26" target="24794b860abc3c2d-29" edge="1">
          <mxGeometry relative="1" as="geometry" />
        </mxCell>
        <mxCell id="24794b860abc3c2d-26" value="&lt;p style=&quot;margin: 0px ; margin-top: 4px ; text-align: center ; text-decoration: underline&quot;&gt;&lt;b&gt;Object:Type&lt;/b&gt;&lt;/p&gt;&lt;hr&gt;&lt;p style=&quot;margin: 0px ; margin-left: 8px&quot;&gt;field1 = value1&lt;br&gt;field2 = value2&lt;br&gt;field3 = value3&lt;/p&gt;&lt;p style=&quot;margin: 0px ; margin-left: 8px&quot;&gt;field4 = value4&lt;br&gt;&lt;/p&gt;&lt;p style=&quot;margin: 0px ; margin-left: 8px&quot;&gt;field5 = value5&lt;/p&gt;" style="verticalAlign=top;align=left;overflow=fill;fontSize=12;fontFamily=Helvetica;html=1;rounded=0;shadow=0;comic=0;labelBackgroundColor=none;strokeWidth=1" parent="1" vertex="1">
          <mxGeometry x="770" y="200" width="140" height="110" as="geometry" />
        </mxCell>
        <mxCell id="24794b860abc3c2d-27" value="&lt;p style=&quot;margin: 0px ; margin-top: 4px ; text-align: center ; text-decoration: underline&quot;&gt;&lt;b&gt;Object:Type&lt;/b&gt;&lt;/p&gt;&lt;hr&gt;&lt;p style=&quot;margin: 0px ; margin-left: 8px&quot;&gt;field1 = value1&lt;br&gt;field2 = value2&lt;br&gt;field3 = value3&lt;/p&gt;&lt;p style=&quot;margin: 0px ; margin-left: 8px&quot;&gt;field4 = value4&lt;/p&gt;" style="verticalAlign=top;align=left;overflow=fill;fontSize=12;fontFamily=Helvetica;html=1;rounded=0;shadow=0;comic=0;labelBackgroundColor=none;strokeWidth=1" parent="1" vertex="1">
          <mxGeometry x="770" y="375" width="140" height="90" as="geometry" />
        </mxCell>
        <mxCell id="24794b860abc3c2d-28" value="&lt;p style=&quot;margin: 0px ; margin-top: 4px ; text-align: center ; text-decoration: underline&quot;&gt;&lt;b&gt;Object:Type&lt;/b&gt;&lt;/p&gt;&lt;hr&gt;&lt;p style=&quot;margin: 0px ; margin-left: 8px&quot;&gt;field1 = value1&lt;br&gt;field2 = value2&lt;br&gt;field3 = value3&lt;/p&gt;&lt;p style=&quot;margin: 0px ; margin-left: 8px&quot;&gt;field4 = value4&lt;br&gt;&lt;/p&gt;&lt;p style=&quot;margin: 0px ; margin-left: 8px&quot;&gt;field5 = value5&lt;/p&gt;" style="verticalAlign=top;align=left;overflow=fill;fontSize=12;fontFamily=Helvetica;html=1;rounded=0;shadow=0;comic=0;labelBackgroundColor=none;strokeWidth=1" parent="1" vertex="1">
          <mxGeometry x="770" y="535" width="140" height="110" as="geometry" />
        </mxCell>
        <mxCell id="24794b860abc3c2d-29" value="&lt;p style=&quot;margin: 0px ; margin-top: 4px ; text-align: center ; text-decoration: underline&quot;&gt;&lt;b&gt;Object:Type&lt;/b&gt;&lt;/p&gt;&lt;hr&gt;&lt;p style=&quot;margin: 0px ; margin-left: 8px&quot;&gt;field1 = value1&lt;br&gt;field2 = value2&lt;br&gt;field3 = value3&lt;/p&gt;&lt;p style=&quot;margin: 0px ; margin-left: 8px&quot;&gt;field4 = value4&lt;br&gt;&lt;/p&gt;&lt;p style=&quot;margin: 0px ; margin-left: 8px&quot;&gt;field5 = value5&lt;br&gt;&lt;/p&gt;&lt;p style=&quot;margin: 0px ; margin-left: 8px&quot;&gt;field6 = value6&lt;br&gt;&lt;/p&gt;&lt;p style=&quot;margin: 0px ; margin-left: 8px&quot;&gt;field7 = value7&lt;br&gt;&lt;/p&gt;&lt;p style=&quot;margin: 0px ; margin-left: 8px&quot;&gt;field8 = value8&lt;br&gt;&lt;/p&gt;&lt;p style=&quot;margin: 0px ; margin-left: 8px&quot;&gt;field9 = value9&lt;br&gt;&lt;/p&gt;&lt;p style=&quot;margin: 0px ; margin-left: 8px&quot;&gt;field10 = value10&lt;br&gt;&lt;/p&gt;&lt;p style=&quot;margin: 0px ; margin-left: 8px&quot;&gt;field11 = value11&lt;br&gt;&lt;/p&gt;&lt;p style=&quot;margin: 0px ; margin-left: 8px&quot;&gt;field12 = value12&lt;/p&gt;" style="verticalAlign=top;align=left;overflow=fill;fontSize=12;fontFamily=Helvetica;html=1;rounded=0;shadow=0;comic=0;labelBackgroundColor=none;strokeWidth=1" parent="1" vertex="1">
          <mxGeometry x="940" y="285" width="140" height="200" as="geometry" />
        </mxCell>
        <mxCell id="ZbvVRpK7YCIXnl2cc7hR-2" value="Orders" style="text;html=1;strokeColor=none;fillColor=none;align=center;verticalAlign=middle;whiteSpace=wrap;rounded=0;labelBackgroundColor=none;fontSize=17;fontColor=#990000;" vertex="1" parent="1">
          <mxGeometry x="75" y="220" width="55" height="5" as="geometry" />
        </mxCell>
        <mxCell id="ZbvVRpK7YCIXnl2cc7hR-3" value="&lt;span style=&quot;background-color: initial;&quot;&gt;order_id: int unique autoincr&lt;br&gt;&lt;/span&gt;customer_name: string&lt;br&gt;customer_email: string&lt;br&gt;deliverery_address: string&lt;br&gt;order_date: date/time&lt;br&gt;notes: string" style="text;html=1;strokeColor=none;fillColor=none;align=left;verticalAlign=middle;whiteSpace=wrap;rounded=0;labelBackgroundColor=none;fontSize=9;fontColor=#FF6666;labelPosition=center;verticalLabelPosition=middle;" vertex="1" parent="1">
          <mxGeometry x="40" y="250" width="130" height="130" as="geometry" />
        </mxCell>
        <mxCell id="ZbvVRpK7YCIXnl2cc7hR-4" value="Order_items" style="text;html=1;strokeColor=none;fillColor=none;align=center;verticalAlign=middle;whiteSpace=wrap;rounded=0;labelBackgroundColor=none;fontSize=17;fontColor=#990000;" vertex="1" parent="1">
          <mxGeometry x="250" y="205" width="60" height="30" as="geometry" />
        </mxCell>
        <mxCell id="ZbvVRpK7YCIXnl2cc7hR-10" value="item_id: int unique autoincr&lt;br&gt;order_id: int, ref to Orders(order_id)&lt;br&gt;good_id: int, ref to goods(id)&lt;br&gt;amount: int&lt;br&gt;notes" style="text;html=1;strokeColor=none;fillColor=none;align=left;verticalAlign=middle;whiteSpace=wrap;rounded=0;labelBackgroundColor=none;fontSize=9;fontColor=#990000;" vertex="1" parent="1">
          <mxGeometry x="220" y="235" width="140" height="145" as="geometry" />
        </mxCell>
      </root>
    </mxGraphModel>
  </diagram>
</mxfile>
